<svg width="131" height="23" viewBox="0 0 131 23" fill="none" xmlns="http://www.w3.org/2000/svg">
<g clip-path="url(#clip0_75_2019)">
<path d="M2.31815 0H0V23H2.31815V0ZM22.5949 9.3406C21.4534 8.24744 21.4569 6.47148 22.5949 5.38169L26.2267 1.90377H32.1907L24.2106 9.54577L25.612 10.8912L36.9815 0H16.6345L8.44719 7.84045V0H6.12905V23H8.44719V15.2739L16.5151 23H36.8515L22.5949 9.3406ZM12.4232 12.4317C12.3143 12.536 12.2124 12.647 12.1141 12.758C12.086 12.7882 12.0649 12.8185 12.0368 12.8522C11.9631 12.9396 11.8963 13.0304 11.8296 13.1212C11.8085 13.1515 11.7874 13.1818 11.7664 13.2121C11.6926 13.3197 11.6259 13.4273 11.5626 13.5417C11.5556 13.5551 11.5486 13.5686 11.5416 13.5787C11.3238 13.9756 11.1693 14.3994 11.0779 14.84C11.0779 14.8501 11.0744 14.8636 11.0709 14.8736C11.0569 14.9376 11.0428 14.9981 11.0323 15.062L9.43768 13.535C8.88624 13.0069 8.58066 12.3039 8.58066 11.5538C8.58066 10.8037 8.88624 10.1008 9.43768 9.57268L17.4564 1.90041H23.4203L12.4232 12.4317ZM17.3369 21.0996C17.3369 21.0996 13.6876 17.5981 13.6279 17.5241C13.6209 17.514 13.6139 17.5073 13.6068 17.4972C12.8201 16.5521 12.7639 15.2268 13.4453 14.2278C13.4453 14.2245 13.4523 14.2178 13.4558 14.211C13.5015 14.1471 13.5506 14.0832 13.5998 14.0227C13.6103 14.0092 13.6209 13.9958 13.6314 13.9823C13.6911 13.9117 13.7544 13.8444 13.8211 13.7805C13.8211 13.7805 13.8246 13.7738 13.8281 13.7738L15.4227 12.2467C15.4297 12.2938 15.4403 12.3409 15.4508 12.388C15.4614 12.4384 15.4684 12.4889 15.4789 12.5393C15.5 12.6402 15.5281 12.7378 15.5562 12.8353C15.5667 12.8723 15.5773 12.9127 15.5878 12.9497C15.6299 13.0842 15.6791 13.2154 15.7353 13.3432C15.7494 13.3735 15.7634 13.4004 15.7775 13.4307C15.8231 13.5316 15.8723 13.6291 15.925 13.7267C15.9496 13.7704 15.9742 13.8108 15.9987 13.8545C16.0479 13.9352 16.0971 14.0159 16.1498 14.0967C16.1779 14.1404 16.2095 14.1841 16.2376 14.2245C16.2938 14.3052 16.357 14.3826 16.4202 14.4599C16.4483 14.4936 16.4764 14.5306 16.508 14.5642C16.6029 14.6752 16.7047 14.7795 16.8101 14.8837L23.3044 21.103H17.3405L17.3369 21.0996ZM18.2115 13.5383C17.6601 13.0102 17.3545 12.3073 17.3545 11.5572C17.3545 10.8071 17.6601 10.1041 18.2115 9.57605L19.8096 8.04563C19.9572 9.01097 20.4173 9.93931 21.1935 10.6827L32.0642 21.0996H26.1073L18.2115 13.5383Z" fill="#F3F5FB"/>
<path d="M48.8497 18.2473V4.01944H51.4173V9.70385H54.6767L59.9944 4.01944H62.7727V4.72242L56.9913 10.9416L62.2212 17.5443V18.2473H59.4254L54.6802 12.1794H51.4208V18.2473H48.8532H48.8497Z" fill="#F3F5FB"/>
<path d="M64.132 6.45802V4.01944H66.6608V6.45802H64.132ZM64.132 18.2473V7.53099H66.6608V18.2473H64.132Z" fill="#F3F5FB"/>
<path d="M68.4135 6.45802V4.01944H70.9423V6.45802H68.4135ZM68.4135 18.2473V7.53099H70.9423V18.2473H68.4135Z" fill="#F3F5FB"/>
<path d="M75.4558 18.2473C74.9676 18.2473 74.5215 18.1296 74.1141 17.8975C73.7102 17.662 73.3835 17.3526 73.1412 16.9658C72.8953 16.579 72.7759 16.1484 72.7759 15.6809V7.51418C72.7759 7.04664 72.8988 6.61947 73.1412 6.2293C73.387 5.84249 73.7102 5.52968 74.1141 5.29759C74.518 5.06215 74.9676 4.94778 75.4558 4.94778H86.6251V7.40654H75.9932C75.786 7.40654 75.6244 7.46372 75.5015 7.57136C75.3785 7.68236 75.3188 7.84381 75.3188 8.05235V15.1461C75.3188 15.3445 75.3785 15.4993 75.5015 15.617C75.6244 15.7347 75.786 15.7919 75.9932 15.7919H86.6251V18.2507H75.4558V18.2473Z" fill="#F3F5FB"/>
<path d="M88.5955 18.2473V4.01944H91.1243V7.53099H97.299C97.7873 7.53099 98.2298 7.64872 98.6302 7.8808C99.0306 8.11625 99.3503 8.42234 99.5961 8.80578C99.842 9.18923 99.9614 9.61303 99.9614 10.0806V18.2473H97.4325V10.1747C97.4325 10.1142 97.4114 10.0604 97.3658 10.0167C97.3201 9.97294 97.2674 9.95275 97.2007 9.95275H91.3562C91.2929 9.95275 91.2367 9.97294 91.1911 10.0167C91.1454 10.0604 91.1243 10.1108 91.1243 10.1747V18.2473H88.5955Z" fill="#F3F5FB"/>
<path d="M104.145 18.2473C103.656 18.2473 103.21 18.1296 102.803 17.8975C102.399 17.662 102.076 17.356 101.837 16.9725C101.598 16.5924 101.479 16.1653 101.479 15.6977V11.6715H110.316V10.1748C110.316 10.1142 110.295 10.0604 110.249 10.0167C110.203 9.97295 110.151 9.95277 110.084 9.95277H101.479V7.53101H110.179C110.667 7.53101 111.113 7.64873 111.521 7.88082C111.924 8.11627 112.248 8.42235 112.486 8.80579C112.725 9.18924 112.845 9.61305 112.845 10.0806V18.2473H104.145ZM104.243 15.8255H110.319V13.8478H104.011V15.6035C104.011 15.6641 104.032 15.7179 104.078 15.7616C104.124 15.8054 104.176 15.8255 104.243 15.8255Z" fill="#F3F5FB"/>
<path d="M114.871 6.45802V4.01944H117.4V6.45802H114.871ZM114.871 18.2473V7.53099H117.4V18.2473H114.871Z" fill="#F3F5FB"/>
<path d="M119.638 18.2473V7.53101H128.338C128.826 7.53101 129.272 7.64873 129.679 7.88082C130.083 8.11627 130.406 8.42235 130.645 8.80579C130.884 9.18924 131.004 9.61305 131.004 10.0806V18.2473H128.475V10.1748C128.475 10.1142 128.454 10.0604 128.408 10.0167C128.362 9.97295 128.31 9.95277 128.243 9.95277H122.398C122.335 9.95277 122.279 9.97295 122.233 10.0167C122.188 10.0604 122.166 10.1109 122.166 10.1748V18.2473H119.638Z" fill="#F3F5FB"/>
</g>
<defs>
<clipPath id="clip0_75_2019">
<rect width="131" height="23" fill="white"/>
</clipPath>
</defs>
</svg>
